<mxfile host="app.diagrams.net" modified="2024-04-19T10:47:01.721Z" agent="Mozilla/5.0 (Windows NT 10.0; Win64; x64) AppleWebKit/537.36 (KHTML, like Gecko) Chrome/123.0.0.0 Safari/537.36" etag="sUzhRm56m3ZzG8QjE4P9" version="24.2.5" type="github">
  <diagram name="Page-1" id="nr04e7j_lgrhqmW4x8mc">
    <mxGraphModel dx="1211" dy="703" grid="1" gridSize="10" guides="1" tooltips="1" connect="1" arrows="1" fold="1" page="1" pageScale="1" pageWidth="850" pageHeight="1100" math="0" shadow="0">
      <root>
        <mxCell id="0" />
        <mxCell id="1" parent="0" />
        <mxCell id="aT8a2JC3UvmOd2hiil9d-3" value="" style="edgeStyle=orthogonalEdgeStyle;rounded=1;orthogonalLoop=1;jettySize=auto;html=1;" edge="1" parent="1" target="aT8a2JC3UvmOd2hiil9d-2">
          <mxGeometry relative="1" as="geometry">
            <mxPoint x="390" y="90" as="sourcePoint" />
          </mxGeometry>
        </mxCell>
        <mxCell id="aT8a2JC3UvmOd2hiil9d-5" style="edgeStyle=orthogonalEdgeStyle;rounded=1;orthogonalLoop=1;jettySize=auto;html=1;exitX=0.5;exitY=1;exitDx=0;exitDy=0;entryX=0.5;entryY=0;entryDx=0;entryDy=0;" edge="1" parent="1" source="aT8a2JC3UvmOd2hiil9d-2" target="aT8a2JC3UvmOd2hiil9d-14">
          <mxGeometry relative="1" as="geometry">
            <mxPoint x="390" y="260" as="targetPoint" />
            <Array as="points">
              <mxPoint x="390" y="250" />
              <mxPoint x="340" y="250" />
            </Array>
          </mxGeometry>
        </mxCell>
        <mxCell id="aT8a2JC3UvmOd2hiil9d-2" value="Initiate LoRa Radio&lt;br&gt;in Listening mode&lt;div&gt;using&amp;nbsp;&lt;/div&gt;" style="rounded=1;whiteSpace=wrap;html=1;arcSize=0;fillColor=#dae8fc;strokeColor=#6c8ebf;" vertex="1" parent="1">
          <mxGeometry x="330" y="130" width="120" height="60" as="geometry" />
        </mxCell>
        <mxCell id="aT8a2JC3UvmOd2hiil9d-18" style="edgeStyle=orthogonalEdgeStyle;rounded=1;orthogonalLoop=1;jettySize=auto;html=1;entryX=0;entryY=0.5;entryDx=0;entryDy=0;" edge="1" parent="1" source="aT8a2JC3UvmOd2hiil9d-14" target="aT8a2JC3UvmOd2hiil9d-16">
          <mxGeometry relative="1" as="geometry" />
        </mxCell>
        <mxCell id="aT8a2JC3UvmOd2hiil9d-23" value="No" style="edgeLabel;html=1;align=center;verticalAlign=middle;resizable=0;points=[];rounded=1;" vertex="1" connectable="0" parent="aT8a2JC3UvmOd2hiil9d-18">
          <mxGeometry x="-0.2476" y="2" relative="1" as="geometry">
            <mxPoint x="-13" y="-8" as="offset" />
          </mxGeometry>
        </mxCell>
        <mxCell id="aT8a2JC3UvmOd2hiil9d-20" style="edgeStyle=orthogonalEdgeStyle;rounded=1;orthogonalLoop=1;jettySize=auto;html=1;" edge="1" parent="1" source="aT8a2JC3UvmOd2hiil9d-14" target="aT8a2JC3UvmOd2hiil9d-19">
          <mxGeometry relative="1" as="geometry">
            <Array as="points">
              <mxPoint x="240" y="350" />
            </Array>
          </mxGeometry>
        </mxCell>
        <mxCell id="aT8a2JC3UvmOd2hiil9d-22" value="Yes" style="edgeLabel;html=1;align=center;verticalAlign=middle;resizable=0;points=[];rounded=1;" vertex="1" connectable="0" parent="aT8a2JC3UvmOd2hiil9d-20">
          <mxGeometry x="-0.5878" y="1" relative="1" as="geometry">
            <mxPoint x="-7" y="9" as="offset" />
          </mxGeometry>
        </mxCell>
        <mxCell id="aT8a2JC3UvmOd2hiil9d-14" value="Earthquake&lt;br&gt;Detected?" style="rhombus;whiteSpace=wrap;html=1;rounded=1;fillColor=#f8cecc;strokeColor=#b85450;" vertex="1" parent="1">
          <mxGeometry x="280" y="290" width="120" height="120" as="geometry" />
        </mxCell>
        <mxCell id="aT8a2JC3UvmOd2hiil9d-25" value="" style="edgeStyle=orthogonalEdgeStyle;rounded=1;orthogonalLoop=1;jettySize=auto;html=1;entryX=0.5;entryY=0;entryDx=0;entryDy=0;exitX=0.5;exitY=1;exitDx=0;exitDy=0;" edge="1" parent="1" source="aT8a2JC3UvmOd2hiil9d-16" target="aT8a2JC3UvmOd2hiil9d-24">
          <mxGeometry relative="1" as="geometry">
            <Array as="points">
              <mxPoint x="510" y="410" />
              <mxPoint x="420" y="410" />
            </Array>
          </mxGeometry>
        </mxCell>
        <mxCell id="aT8a2JC3UvmOd2hiil9d-45" value="Yes" style="edgeLabel;html=1;align=center;verticalAlign=middle;resizable=0;points=[];" vertex="1" connectable="0" parent="aT8a2JC3UvmOd2hiil9d-25">
          <mxGeometry x="-0.1442" y="3" relative="1" as="geometry">
            <mxPoint y="-13" as="offset" />
          </mxGeometry>
        </mxCell>
        <mxCell id="aT8a2JC3UvmOd2hiil9d-16" value="Packet Received?" style="rhombus;whiteSpace=wrap;html=1;rounded=1;fillColor=#f8cecc;strokeColor=#b85450;" vertex="1" parent="1">
          <mxGeometry x="450" y="280" width="120" height="120" as="geometry" />
        </mxCell>
        <mxCell id="aT8a2JC3UvmOd2hiil9d-21" style="edgeStyle=orthogonalEdgeStyle;rounded=1;orthogonalLoop=1;jettySize=auto;html=1;entryX=-0.019;entryY=0.472;entryDx=0;entryDy=0;entryPerimeter=0;" edge="1" parent="1" source="aT8a2JC3UvmOd2hiil9d-19" target="aT8a2JC3UvmOd2hiil9d-2">
          <mxGeometry relative="1" as="geometry">
            <mxPoint x="300" y="100" as="targetPoint" />
            <Array as="points">
              <mxPoint x="240" y="158" />
            </Array>
          </mxGeometry>
        </mxCell>
        <mxCell id="aT8a2JC3UvmOd2hiil9d-19" value="Transmit&lt;br&gt;Warning" style="rounded=0;whiteSpace=wrap;html=1;" vertex="1" parent="1">
          <mxGeometry x="180" y="220" width="120" height="60" as="geometry" />
        </mxCell>
        <mxCell id="aT8a2JC3UvmOd2hiil9d-28" style="edgeStyle=orthogonalEdgeStyle;rounded=1;orthogonalLoop=1;jettySize=auto;html=1;entryX=1;entryY=0.5;entryDx=0;entryDy=0;" edge="1" parent="1" source="aT8a2JC3UvmOd2hiil9d-24" target="aT8a2JC3UvmOd2hiil9d-30">
          <mxGeometry relative="1" as="geometry">
            <mxPoint x="270" y="470" as="targetPoint" />
          </mxGeometry>
        </mxCell>
        <mxCell id="aT8a2JC3UvmOd2hiil9d-29" value="Warning&lt;br&gt;Message" style="edgeLabel;html=1;align=center;verticalAlign=middle;resizable=0;points=[];rounded=1;labelBackgroundColor=none;" vertex="1" connectable="0" parent="aT8a2JC3UvmOd2hiil9d-28">
          <mxGeometry x="-0.2422" y="-1" relative="1" as="geometry">
            <mxPoint x="23" y="1" as="offset" />
          </mxGeometry>
        </mxCell>
        <mxCell id="aT8a2JC3UvmOd2hiil9d-33" style="edgeStyle=orthogonalEdgeStyle;rounded=1;orthogonalLoop=1;jettySize=auto;html=1;" edge="1" parent="1" source="aT8a2JC3UvmOd2hiil9d-24" target="aT8a2JC3UvmOd2hiil9d-32">
          <mxGeometry relative="1" as="geometry" />
        </mxCell>
        <mxCell id="aT8a2JC3UvmOd2hiil9d-36" value="Health&lt;br&gt;Check" style="edgeLabel;html=1;align=center;verticalAlign=middle;resizable=0;points=[];rounded=1;labelBackgroundColor=none;" vertex="1" connectable="0" parent="aT8a2JC3UvmOd2hiil9d-33">
          <mxGeometry x="-0.4476" relative="1" as="geometry">
            <mxPoint x="3" as="offset" />
          </mxGeometry>
        </mxCell>
        <mxCell id="aT8a2JC3UvmOd2hiil9d-40" style="edgeStyle=orthogonalEdgeStyle;rounded=1;orthogonalLoop=1;jettySize=auto;html=1;entryX=0.5;entryY=0;entryDx=0;entryDy=0;" edge="1" parent="1" source="aT8a2JC3UvmOd2hiil9d-24" target="aT8a2JC3UvmOd2hiil9d-39">
          <mxGeometry relative="1" as="geometry" />
        </mxCell>
        <mxCell id="aT8a2JC3UvmOd2hiil9d-41" value="Reconfigure&amp;nbsp;&lt;div&gt;packet&lt;/div&gt;" style="edgeLabel;html=1;align=left;verticalAlign=middle;resizable=0;points=[];rounded=1;labelBackgroundColor=none;" vertex="1" connectable="0" parent="aT8a2JC3UvmOd2hiil9d-40">
          <mxGeometry x="-0.2229" y="-2" relative="1" as="geometry">
            <mxPoint x="7" as="offset" />
          </mxGeometry>
        </mxCell>
        <mxCell id="aT8a2JC3UvmOd2hiil9d-24" value="What is the&amp;nbsp;&lt;div&gt;Packet type?&lt;/div&gt;" style="rhombus;whiteSpace=wrap;html=1;rounded=1;fillColor=#f8cecc;strokeColor=#b85450;" vertex="1" parent="1">
          <mxGeometry x="360" y="440" width="120" height="120" as="geometry" />
        </mxCell>
        <mxCell id="aT8a2JC3UvmOd2hiil9d-31" style="edgeStyle=orthogonalEdgeStyle;rounded=1;orthogonalLoop=1;jettySize=auto;html=1;exitX=0.25;exitY=0;exitDx=0;exitDy=0;" edge="1" parent="1" source="aT8a2JC3UvmOd2hiil9d-30">
          <mxGeometry relative="1" as="geometry">
            <mxPoint x="330" y="140" as="targetPoint" />
            <mxPoint x="150" y="520.006711409396" as="sourcePoint" />
            <Array as="points">
              <mxPoint x="160" y="440" />
              <mxPoint x="160" y="140" />
            </Array>
          </mxGeometry>
        </mxCell>
        <mxCell id="aT8a2JC3UvmOd2hiil9d-30" value="Notify the residance" style="rounded=0;whiteSpace=wrap;html=1;" vertex="1" parent="1">
          <mxGeometry x="130" y="440" width="120" height="60" as="geometry" />
        </mxCell>
        <mxCell id="aT8a2JC3UvmOd2hiil9d-59" style="edgeStyle=orthogonalEdgeStyle;rounded=1;orthogonalLoop=1;jettySize=auto;html=1;strokeColor=default;align=center;verticalAlign=middle;fontFamily=Helvetica;fontSize=11;fontColor=default;labelBackgroundColor=default;endArrow=classic;" edge="1" parent="1" source="aT8a2JC3UvmOd2hiil9d-32" target="aT8a2JC3UvmOd2hiil9d-48">
          <mxGeometry relative="1" as="geometry">
            <mxPoint x="670" y="410" as="targetPoint" />
          </mxGeometry>
        </mxCell>
        <mxCell id="aT8a2JC3UvmOd2hiil9d-32" value="Schedule a packet" style="rounded=0;whiteSpace=wrap;html=1;" vertex="1" parent="1">
          <mxGeometry x="580" y="470" width="120" height="60" as="geometry" />
        </mxCell>
        <mxCell id="aT8a2JC3UvmOd2hiil9d-42" style="edgeStyle=orthogonalEdgeStyle;rounded=1;orthogonalLoop=1;jettySize=auto;html=1;entryX=0.5;entryY=1;entryDx=0;entryDy=0;" edge="1" parent="1" source="aT8a2JC3UvmOd2hiil9d-39" target="aT8a2JC3UvmOd2hiil9d-32">
          <mxGeometry relative="1" as="geometry" />
        </mxCell>
        <mxCell id="aT8a2JC3UvmOd2hiil9d-39" value="Reconfigure&lt;div&gt;parameters&lt;/div&gt;" style="rounded=0;whiteSpace=wrap;html=1;" vertex="1" parent="1">
          <mxGeometry x="360" y="623" width="120" height="60" as="geometry" />
        </mxCell>
        <mxCell id="aT8a2JC3UvmOd2hiil9d-44" value="Start" style="rounded=1;whiteSpace=wrap;html=1;arcSize=50;" vertex="1" parent="1">
          <mxGeometry x="330" y="30" width="120" height="60" as="geometry" />
        </mxCell>
        <mxCell id="aT8a2JC3UvmOd2hiil9d-48" value="Schaduled&lt;br&gt;conditions met?" style="rhombus;whiteSpace=wrap;html=1;rounded=1;fillColor=#f8cecc;strokeColor=#b85450;" vertex="1" parent="1">
          <mxGeometry x="620" y="280" width="120" height="120" as="geometry" />
        </mxCell>
        <mxCell id="aT8a2JC3UvmOd2hiil9d-52" style="edgeStyle=orthogonalEdgeStyle;rounded=0;orthogonalLoop=1;jettySize=auto;html=1;entryX=0.033;entryY=0.504;entryDx=0;entryDy=0;entryPerimeter=0;" edge="1" parent="1" source="aT8a2JC3UvmOd2hiil9d-16" target="aT8a2JC3UvmOd2hiil9d-48">
          <mxGeometry relative="1" as="geometry" />
        </mxCell>
        <mxCell id="aT8a2JC3UvmOd2hiil9d-55" value="No" style="edgeLabel;html=1;align=center;verticalAlign=middle;resizable=0;points=[];" vertex="1" connectable="0" parent="aT8a2JC3UvmOd2hiil9d-52">
          <mxGeometry x="-0.383" y="1" relative="1" as="geometry">
            <mxPoint x="3" y="11" as="offset" />
          </mxGeometry>
        </mxCell>
        <mxCell id="aT8a2JC3UvmOd2hiil9d-56" style="edgeStyle=orthogonalEdgeStyle;rounded=0;orthogonalLoop=1;jettySize=auto;html=1;entryX=1;entryY=0.5;entryDx=0;entryDy=0;flowAnimation=0;" edge="1" parent="1" source="aT8a2JC3UvmOd2hiil9d-53" target="aT8a2JC3UvmOd2hiil9d-2">
          <mxGeometry relative="1" as="geometry" />
        </mxCell>
        <mxCell id="aT8a2JC3UvmOd2hiil9d-53" value="Retransmit the&lt;br&gt;Schaduled&lt;br&gt;packet" style="rounded=0;whiteSpace=wrap;html=1;" vertex="1" parent="1">
          <mxGeometry x="620" y="130" width="120" height="60" as="geometry" />
        </mxCell>
        <mxCell id="aT8a2JC3UvmOd2hiil9d-54" style="edgeStyle=orthogonalEdgeStyle;rounded=0;orthogonalLoop=1;jettySize=auto;html=1;entryX=0.5;entryY=1;entryDx=0;entryDy=0;flowAnimation=0;" edge="1" parent="1" source="aT8a2JC3UvmOd2hiil9d-48" target="aT8a2JC3UvmOd2hiil9d-53">
          <mxGeometry relative="1" as="geometry" />
        </mxCell>
      </root>
    </mxGraphModel>
  </diagram>
</mxfile>
